<?xml version="1.0" encoding="utf-8"?>
<!-- Generator: Adobe Illustrator 22.1.0, SVG Export Plug-In . SVG Version: 6.00 Build 0)  -->
<svg version="1.1" id="图层_1" xmlns="http://www.w3.org/2000/svg" xmlns:xlink="http://www.w3.org/1999/xlink" x="0px" y="0px"
	 viewBox="0 0 80 80" style="enable-background:new 0 0 80 80;" xml:space="preserve">
<style type="text/css">
	.st0{clip-path:url(#SVGID_2_);}
	.st1{clip-path:url(#SVGID_4_);fill:#545875;}
	.st2{clip-path:url(#SVGID_6_);}
	.st3{clip-path:url(#SVGID_8_);enable-background:new    ;}
	.st4{clip-path:url(#SVGID_10_);}
	.st5{clip-path:url(#SVGID_12_);}
	.st6{clip-path:url(#SVGID_14_);fill:#4DD0CB;}
	.st7{clip-path:url(#SVGID_16_);}
	.st8{clip-path:url(#SVGID_18_);fill:#FFFFFF;}
	.st9{fill:#545875;}
	.st10{fill:#DE6A3D;}
	.st11{fill:#4DD0CB;}
	.st12{fill:#FFFFFF;}
	.st13{fill:#5C70CB;}
</style>
<g>
	<defs>
		<path id="SVGID_1_" d="M-345.4-1940.7h-37c-0.9,0-1.6-0.7-1.6-1.6v-42.1c0-0.9,0.7-1.6,1.6-1.6h37c0.9,0,1.6,0.7,1.6,1.6v42.1
			C-343.8-1941.4-344.5-1940.7-345.4-1940.7"/>
	</defs>
	<clipPath id="SVGID_2_">
		<use xlink:href="#SVGID_1_"  style="overflow:visible;"/>
	</clipPath>
	<g class="st0">
		<defs>
			<rect id="SVGID_3_" x="-933" y="-2729" width="1920" height="5536"/>
		</defs>
		<clipPath id="SVGID_4_">
			<use xlink:href="#SVGID_3_"  style="overflow:visible;"/>
		</clipPath>
		<rect x="-389" y="-1991" class="st1" width="50.2" height="55.3"/>
	</g>
</g>
<g>
	<defs>
		<rect id="SVGID_5_" x="-377.4" y="-1985.6" width="34.2" height="49.6"/>
	</defs>
	<clipPath id="SVGID_6_">
		<use xlink:href="#SVGID_5_"  style="overflow:visible;"/>
	</clipPath>
	<g class="st2">
		<defs>
			<rect id="SVGID_7_" x="-933" y="-2729" width="1920" height="5536"/>
		</defs>
		<clipPath id="SVGID_8_">
			<use xlink:href="#SVGID_7_"  style="overflow:visible;"/>
		</clipPath>
		<g class="st3">
			<g>
				<defs>
					<rect id="SVGID_9_" x="-378" y="-1986" width="35" height="51"/>
				</defs>
				<clipPath id="SVGID_10_">
					<use xlink:href="#SVGID_9_"  style="overflow:visible;"/>
				</clipPath>
				<g class="st4">
					<defs>
						<path id="SVGID_11_" d="M-375.4-1936c-1.1,0.1-2-0.5-2-1.4v-43c0-0.9,0.9-1.7,2-1.8l30.2-3.3c1.1-0.1,2,0.5,2,1.4v43
							c0,0.9-0.9,1.7-2,1.8L-375.4-1936z"/>
					</defs>
					<clipPath id="SVGID_12_">
						<use xlink:href="#SVGID_11_"  style="overflow:visible;"/>
					</clipPath>
					<g class="st5">
						<defs>
							<rect id="SVGID_13_" x="-378" y="-1986" width="35" height="50"/>
						</defs>
						<clipPath id="SVGID_14_">
							<use xlink:href="#SVGID_13_"  style="overflow:visible;"/>
						</clipPath>
						<rect x="-382.4" y="-1990.6" class="st6" width="44.2" height="59.6"/>
					</g>
				</g>
			</g>
		</g>
	</g>
</g>
<g>
	<defs>
		<path id="SVGID_15_" d="M-370.7-1958.9c-1.5,0-2.7-1.2-2.7-2.6c0-1.5,1.2-2.6,2.7-2.6c1.5,0,2.7,1.2,2.7,2.6
			C-368.1-1960.1-369.2-1958.9-370.7-1958.9z"/>
	</defs>
	<clipPath id="SVGID_16_">
		<use xlink:href="#SVGID_15_"  style="overflow:visible;"/>
	</clipPath>
	<g class="st7">
		<defs>
			<rect id="SVGID_17_" x="-933" y="-2729" width="1920" height="5536"/>
		</defs>
		<clipPath id="SVGID_18_">
			<use xlink:href="#SVGID_17_"  style="overflow:visible;"/>
		</clipPath>
		<rect x="-378.4" y="-1969.2" class="st8" width="15.3" height="15.3"/>
	</g>
</g>
<g>
	<rect x="-123.3" y="-96" class="st9" width="14" height="6"/>
</g>
<g>
	<polygon class="st10" points="-69.3,-85 -101.3,-85 -99,-99 -71.6,-99 	"/>
</g>
<g>
	<path d="M12.1-70.6H6.8C6.4-70.6,6-71,6-71.4c0-0.4,0.4-0.8,0.8-0.8h5.3c0.4,0,0.8,0.4,0.8,0.8C12.9-71,12.6-70.6,12.1-70.6
		L12.1-70.6z M12.1-70.6"/>
</g>
<g>
	<path class="st9" d="M9.5-102c-0.6,0-1.2,0-1.7,0.1c-0.6,0.1-1,0.6-1,1.2v4.4c0,0.6-0.5,1.2-1.2,1.2s-1.2-0.5-1.2-1.2v-3
		c0-0.7-0.6-1.2-1.2-1.2c-0.2,0-0.4,0-0.5,0.1c-4.6,2.3-7.9,7-8.3,12.4c0,0.6-0.5,1.1-1.2,1.1h-1.3c-0.6,0-1.2,0.5-1.2,1.2
		c0,0.6,0.5,1.2,1.2,1.2h35.2c0.6,0,1.2-0.5,1.2-1.2c0-0.6-0.5-1.2-1.2-1.2h-1.3c-0.6,0-1.1-0.5-1.2-1.1c-0.4-5.4-3.6-10-8.2-12.4
		c-0.2-0.1-0.4-0.1-0.5-0.1c-0.6,0-1.2,0.5-1.2,1.2v3c0,0.6-0.5,1.2-1.2,1.2c-0.6,0-1.2-0.5-1.2-1.2v-4.4c0-0.6-0.4-1.1-1-1.2
		C10.7-102,10.1-102,9.5-102L9.5-102z M9.5-102"/>
</g>
<g>
	<path class="st10" d="M41.2-45.3c-2.1-10.9-12.1-19.5-25.1-21.8c5-2.8,8.4-8.6,8.4-15.4H-5.7c0,6.8,3.4,12.6,8.4,15.4
		c-12.9,2.3-23,10.9-25.1,21.8c-0.4,2.2,1.4,4.3,3.9,4.3h55.8C39.8-41,41.7-43.1,41.2-45.3L41.2-45.3z M-19.7-44 M38.7-44"/>
</g>
<g>
	<ellipse cx="262.6" cy="39.7" rx="10.9" ry="11.1"/>
</g>
<g>
	<circle cx="262.6" cy="39.7" r="8"/>
</g>
<g>
	<path class="st9" d="M247,59.6c2.1,1.7,4.4,3.1,6.7,4c2.5-2.3,5.7-3.6,9-3.6c3.4,0,6.5,1.3,9,3.6c2.5-1,4.8-2.3,6.7-4
		c-0.8-3.2-0.2-6.7,1.3-9.7c1.7-2.9,4.4-5.2,7.6-6.1c0.2-1.3,0.4-2.7,0.4-4c0-1.3-0.2-2.7-0.4-4c-3.2-1-5.9-3.2-7.6-6.1
		s-2.1-6.5-1.3-9.7c-2.1-1.7-4.4-3.1-6.7-4c-2.5,2.3-5.5,3.6-9,3.6c-3.2,0-6.5-1.3-9-3.6c-2.5,1-4.8,2.3-6.7,4
		c0.8,3.2,0.2,6.7-1.3,9.7c-1.7,2.9-4.4,5.2-7.6,6.1c-0.2,1.3-0.4,2.7-0.4,4c0,1.3,0.2,2.7,0.4,4c3.2,1,5.9,3.2,7.6,6.1
		C247.2,52.9,247.7,56.3,247,59.6"/>
</g>
<g>
	<path class="st10" d="M-65.9-43h-65.4c-1.1,0-2-0.9-2-2v-44.9c0-1.1,0.9-2,2-2h65.4c1.1,0,2,0.9,2,2V-45
		C-63.9-43.9-64.8-43-65.9-43z"/>
</g>
<g>
	<path class="st9" d="M191.4,60.9h-36.6c-1.1,0-2-0.9-2-2V17.3c0-1.1,0.9-2,2-2h36.6c1.1,0,2,0.9,2,2v41.6
		C193.4,60,192.5,60.9,191.4,60.9z"/>
</g>
<g>
	<path class="st11" d="M191.8,62l-30.5,3.3c-1.1,0.1-2-0.5-2-1.4V20.5c0-0.9,0.9-1.7,2-1.9l30.5-3.3c1.1-0.1,2,0.5,2,1.4v43.4
		C193.9,61.1,193,61.9,191.8,62z"/>
</g>
<circle class="st12" cx="-87.4" cy="-68.5" r="20"/>
<circle class="st10" cx="-87.4" cy="-68.5" r="15.4"/>
<circle class="st12" cx="262.6" cy="39.7" r="7.2"/>
<g>
	<circle class="st12" cx="166.2" cy="40" r="2.8"/>
</g>
<g>
	<path class="st13" d="M59.6,20.2l-20-4.2h-0.8l-20,4.2c-0.7,0.1-1.1,0.7-1.1,1.4v18.1c0,13.7,10.6,23.6,21.2,26.4h0.5
		C50,63.3,60.7,53.4,60.7,39.7V21.6C60.7,20.9,60.3,20.4,59.6,20.2L59.6,20.2z M58,39.7"/>
</g>
<g>
	<path class="st12" d="M52.3,49.5c0.5,0.3,0.5,1.2-0.1,1.7l-2.8,2.8c-0.5,0.5-1.2,0.5-1.7,0L36.6,42.9c-2.8,1.1-6.1,0.5-8.4-1.8
		c-2.5-2.5-3.1-6.1-1.6-9.1l5.4,5.3l3.7-3.7l-5.3-5.3c2.9-1.3,6.6-0.9,9.1,1.6c2.4,2.4,2.9,5.6,1.8,8.4L52.3,49.5z"/>
</g>
</svg>
