<?xml version="1.0" encoding="utf-8"?>
<!-- Generator: Adobe Illustrator 22.1.0, SVG Export Plug-In . SVG Version: 6.00 Build 0)  -->
<svg version="1.1" id="图层_1" xmlns="http://www.w3.org/2000/svg" xmlns:xlink="http://www.w3.org/1999/xlink" x="0px" y="0px"
	 viewBox="0 0 30 30" style="enable-background:new 0 0 30 30;" xml:space="preserve">
<style type="text/css">
	.st0{fill:#333333;}
	.st1{clip-path:url(#SVGID_2_);enable-background:new    ;}
	.st2{clip-path:url(#SVGID_4_);}
	.st3{clip-path:url(#SVGID_6_);}
	.st4{clip-path:url(#SVGID_8_);fill:#333333;}
	.st5{clip-path:url(#SVGID_10_);enable-background:new    ;}
	.st6{clip-path:url(#SVGID_12_);}
	.st7{clip-path:url(#SVGID_14_);}
	.st8{clip-path:url(#SVGID_16_);fill:#333333;}
</style>
<g>
	<g>
		<path class="st0" d="M12.8,3.9c0,0-2.4-0.1-3.9,1.9c-1.5,2-0.4,5,0.3,6.5c0.7,1.6,4.5,7.7,4.7,7.8c0.1,0.1,0.3,0.1,0.3,0
			c0-0.1,0.4-8.9,0.1-11C14,6.9,13,4.2,12.8,3.9L12.8,3.9z M4.5,8c-0.3,0-2.2,2-2.4,3.9c-0.2,1.9,0.6,3.2,2.9,4.7
			c2.3,1.6,7.8,4.6,7.9,4.4c0.1-0.3-2.1-4.2-3.9-7.1C7.2,11.1,4.8,8,4.5,8L4.5,8z M5.3,25.7c1.7,0.7,4.2-0.9,5-1.4
			c0.7-0.5,1.9-1.4,1.9-1.4l-9.4,0.3C2.7,23.1,3.6,24.9,5.3,25.7L5.3,25.7z M5.5,18.1c-1.7-0.8-5.1-2.8-5.3-2.7
			c-0.1,0-0.7,2.4,0.4,4.3c1.1,1.8,3.2,2.4,4.2,2.5c1.1,0.2,7.5,0.1,7.4,0C12.2,22,7.2,18.9,5.5,18.1L5.5,18.1z M21.1,5.8
			c-1.5-2-3.9-1.9-3.9-1.9c-0.2,0.2-1.2,3-1.5,5.1c-0.3,2.2,0.1,10.9,0.1,11c0,0.1,0.2,0.2,0.3,0c0.1-0.1,4-6.2,4.7-7.8
			C21.5,10.8,22.6,7.8,21.1,5.8L21.1,5.8z M29.7,15.4c-0.1,0-3.6,1.9-5.3,2.7c-1.7,0.8-6.7,3.9-6.7,4c0,0.1,6.3,0.2,7.4,0
			c1-0.1,3.1-0.7,4.2-2.5C30.4,17.8,29.9,15.4,29.7,15.4L29.7,15.4z M19.7,24.3c0.7,0.5,3.3,2.1,5,1.4c1.7-0.7,2.5-2.6,2.5-2.6
			l-9.4-0.3C17.9,22.8,19.1,23.8,19.7,24.3L19.7,24.3z M27.9,11.9C27.7,10,25.7,8,25.4,8c-0.3,0-2.6,3-4.5,5.9
			c-1.8,2.9-4,6.8-3.9,7.1c0.1,0.3,5.6-2.7,7.9-4.4C27.2,15.1,28,13.8,27.9,11.9L27.9,11.9z M27.9,11.9"/>
	</g>
</g>
<g>
	<defs>
		<path id="SVGID_1_" d="M-134-85h298c3.3,0,6,2.7,6,6v188c0,3.3-2.7,6-6,6h-298c-3.3,0-6-2.7-6-6V-79C-140-82.3-137.3-85-134-85z"
			/>
	</defs>
	<clipPath id="SVGID_2_">
		<use xlink:href="#SVGID_1_"  style="overflow:visible;"/>
	</clipPath>
	<g class="st1">
		<g>
			<defs>
				<rect id="SVGID_3_" x="-109" y="-63" width="26" height="29"/>
			</defs>
			<clipPath id="SVGID_4_">
				<use xlink:href="#SVGID_3_"  style="overflow:visible;"/>
			</clipPath>
			<g class="st2">
				<defs>
					<path id="SVGID_5_" d="M-87-48.1c0,4.2,3.9,5.6,4,5.7c0,0.1-0.6,2-2,4c-1.2,1.7-2.5,3.4-4.5,3.4c-2,0-2.6-1.1-4.9-1.1
						c-2.3,0-3,1.1-4.8,1.1c-1.9,0.1-3.4-1.8-4.7-3.5c-2.5-3.5-4.5-9.8-1.9-14.1c1.3-2.1,3.6-3.5,6.1-3.5c1.9,0,3.7,1.2,4.9,1.2
						c1.2,0,3.3-1.5,5.6-1.3c1,0,3.7,0.4,5.4,2.8C-83.9-53.4-87-51.7-87-48.1 M-95-56.5c-0.2-1.6,0.6-3.3,1.6-4.3
						c1.1-1.2,2.9-2.1,4.3-2.1c0.2,1.6-0.5,3.3-1.5,4.5C-91.7-57.3-93.4-56.4-95-56.5"/>
				</defs>
				<clipPath id="SVGID_6_">
					<use xlink:href="#SVGID_5_"  style="overflow:visible;"/>
				</clipPath>
				<g class="st3">
					<defs>
						<rect id="SVGID_7_" x="-107" y="-63" width="24" height="28"/>
					</defs>
					<clipPath id="SVGID_8_">
						<use xlink:href="#SVGID_7_"  style="overflow:visible;"/>
					</clipPath>
					<rect x="-112" y="-68" class="st4" width="34" height="38"/>
				</g>
			</g>
		</g>
	</g>
</g>
<g>
	<defs>
		<path id="SVGID_9_" d="M-127-82h298c3.3,0,6,2.7,6,6v188c0,3.3-2.7,6-6,6h-298c-3.3,0-6-2.7-6-6V-76C-133-79.3-130.3-82-127-82z"
			/>
	</defs>
	<clipPath id="SVGID_10_">
		<use xlink:href="#SVGID_9_"  style="overflow:visible;"/>
	</clipPath>
	<g class="st5">
		<g>
			<defs>
				<rect id="SVGID_11_" x="-102" y="-60" width="26" height="29"/>
			</defs>
			<clipPath id="SVGID_12_">
				<use xlink:href="#SVGID_11_"  style="overflow:visible;"/>
			</clipPath>
			<g class="st6">
				<defs>
					<path id="SVGID_13_" d="M-80-45.1c0,4.2,3.9,5.6,4,5.7c0,0.1-0.6,2-2,4c-1.2,1.7-2.5,3.4-4.5,3.4c-2,0-2.6-1.1-4.9-1.1
						c-2.3,0-3,1.1-4.8,1.1c-1.9,0.1-3.4-1.8-4.7-3.5c-2.5-3.5-4.5-9.8-1.9-14.1c1.3-2.1,3.6-3.5,6.1-3.5c1.9,0,3.7,1.2,4.9,1.2
						c1.2,0,3.3-1.5,5.6-1.3c1,0,3.7,0.4,5.4,2.8C-76.9-50.4-80-48.7-80-45.1 M-88-53.5c-0.2-1.6,0.6-3.3,1.6-4.3
						c1.1-1.2,2.9-2.1,4.3-2.1c0.2,1.6-0.5,3.3-1.5,4.5C-84.7-54.3-86.4-53.4-88-53.5"/>
				</defs>
				<clipPath id="SVGID_14_">
					<use xlink:href="#SVGID_13_"  style="overflow:visible;"/>
				</clipPath>
				<g class="st7">
					<defs>
						<rect id="SVGID_15_" x="-100" y="-60" width="24" height="28"/>
					</defs>
					<clipPath id="SVGID_16_">
						<use xlink:href="#SVGID_15_"  style="overflow:visible;"/>
					</clipPath>
					<rect x="-105" y="-65" class="st8" width="34" height="38"/>
				</g>
			</g>
		</g>
	</g>
</g>
</svg>
