<?xml version="1.0" encoding="utf-8"?>
<!-- Generator: Adobe Illustrator 22.1.0, SVG Export Plug-In . SVG Version: 6.00 Build 0)  -->
<svg version="1.1" id="图层_1" xmlns="http://www.w3.org/2000/svg" xmlns:xlink="http://www.w3.org/1999/xlink" x="0px" y="0px"
	 viewBox="0 0 30 30" style="enable-background:new 0 0 30 30;" xml:space="preserve">
<style type="text/css">
	.st0{clip-path:url(#SVGID_2_);enable-background:new    ;}
	.st1{clip-path:url(#SVGID_4_);}
	.st2{clip-path:url(#SVGID_6_);}
	.st3{clip-path:url(#SVGID_8_);fill:#333333;}
	.st4{clip-path:url(#SVGID_10_);enable-background:new    ;}
	.st5{clip-path:url(#SVGID_12_);}
	.st6{clip-path:url(#SVGID_14_);}
	.st7{clip-path:url(#SVGID_16_);fill:#333333;}
	.st8{fill:#333333;}
</style>
<g>
	<defs>
		<path id="SVGID_1_" d="M-134-85h298c3.3,0,6,2.7,6,6v188c0,3.3-2.7,6-6,6h-298c-3.3,0-6-2.7-6-6V-79C-140-82.3-137.3-85-134-85z"
			/>
	</defs>
	<clipPath id="SVGID_2_">
		<use xlink:href="#SVGID_1_"  style="overflow:visible;"/>
	</clipPath>
	<g class="st0">
		<g>
			<defs>
				<rect id="SVGID_3_" x="-109" y="-63" width="26" height="29"/>
			</defs>
			<clipPath id="SVGID_4_">
				<use xlink:href="#SVGID_3_"  style="overflow:visible;"/>
			</clipPath>
			<g class="st1">
				<defs>
					<path id="SVGID_5_" d="M-87-48.1c0,4.2,3.9,5.6,4,5.7c0,0.1-0.6,2-2,4c-1.2,1.7-2.5,3.4-4.5,3.4c-2,0-2.6-1.1-4.9-1.1
						c-2.3,0-3,1.1-4.8,1.1c-1.9,0.1-3.4-1.8-4.7-3.5c-2.5-3.5-4.5-9.8-1.9-14.1c1.3-2.1,3.6-3.5,6.1-3.5c1.9,0,3.7,1.2,4.9,1.2
						c1.2,0,3.3-1.5,5.6-1.3c1,0,3.7,0.4,5.4,2.8C-83.9-53.4-87-51.7-87-48.1 M-95-56.5c-0.2-1.6,0.6-3.3,1.6-4.3
						c1.1-1.2,2.9-2.1,4.3-2.1c0.2,1.6-0.5,3.3-1.5,4.5C-91.7-57.3-93.4-56.4-95-56.5"/>
				</defs>
				<clipPath id="SVGID_6_">
					<use xlink:href="#SVGID_5_"  style="overflow:visible;"/>
				</clipPath>
				<g class="st2">
					<defs>
						<rect id="SVGID_7_" x="-107" y="-63" width="24" height="28"/>
					</defs>
					<clipPath id="SVGID_8_">
						<use xlink:href="#SVGID_7_"  style="overflow:visible;"/>
					</clipPath>
					<rect x="-112" y="-68" class="st3" width="34" height="38"/>
				</g>
			</g>
		</g>
	</g>
</g>
<g>
	<defs>
		<path id="SVGID_9_" d="M-127-82h298c3.3,0,6,2.7,6,6v188c0,3.3-2.7,6-6,6h-298c-3.3,0-6-2.7-6-6V-76C-133-79.3-130.3-82-127-82z"
			/>
	</defs>
	<clipPath id="SVGID_10_">
		<use xlink:href="#SVGID_9_"  style="overflow:visible;"/>
	</clipPath>
	<g class="st4">
		<g>
			<defs>
				<rect id="SVGID_11_" x="-102" y="-60" width="26" height="29"/>
			</defs>
			<clipPath id="SVGID_12_">
				<use xlink:href="#SVGID_11_"  style="overflow:visible;"/>
			</clipPath>
			<g class="st5">
				<defs>
					<path id="SVGID_13_" d="M-80-45.1c0,4.2,3.9,5.6,4,5.7c0,0.1-0.6,2-2,4c-1.2,1.7-2.5,3.4-4.5,3.4c-2,0-2.6-1.1-4.9-1.1
						c-2.3,0-3,1.1-4.8,1.1c-1.9,0.1-3.4-1.8-4.7-3.5c-2.5-3.5-4.5-9.8-1.9-14.1c1.3-2.1,3.6-3.5,6.1-3.5c1.9,0,3.7,1.2,4.9,1.2
						c1.2,0,3.3-1.5,5.6-1.3c1,0,3.7,0.4,5.4,2.8C-76.9-50.4-80-48.7-80-45.1 M-88-53.5c-0.2-1.6,0.6-3.3,1.6-4.3
						c1.1-1.2,2.9-2.1,4.3-2.1c0.2,1.6-0.5,3.3-1.5,4.5C-84.7-54.3-86.4-53.4-88-53.5"/>
				</defs>
				<clipPath id="SVGID_14_">
					<use xlink:href="#SVGID_13_"  style="overflow:visible;"/>
				</clipPath>
				<g class="st6">
					<defs>
						<rect id="SVGID_15_" x="-100" y="-60" width="24" height="28"/>
					</defs>
					<clipPath id="SVGID_16_">
						<use xlink:href="#SVGID_15_"  style="overflow:visible;"/>
					</clipPath>
					<rect x="-105" y="-65" class="st7" width="34" height="38"/>
				</g>
			</g>
		</g>
	</g>
</g>
<path class="st8" d="M24.2,19.6c0.8,1.1,1.7,1.8,2.8,2.2c-0.5,1.4-1.2,2.8-2.1,4.3c-1.5,2.3-3,3.4-4.4,3.4c-0.5,0-1.4-0.2-2.4-0.6
	c-1-0.4-1.8-0.6-2.6-0.6s-1.5,0.2-2.4,0.6c-0.9,0.4-1.7,0.6-2.3,0.6c-1.7,0-3.5-1.5-5.2-4.4c-1.7-2.9-2.6-5.8-2.6-8.6
	c0-2.6,0.6-4.7,1.9-6.4c1.3-1.7,2.9-2.5,4.9-2.5c0.4,0,0.9,0,1.4,0.2c0.5,0.1,1.1,0.3,1.6,0.6c0.6,0.3,1.1,0.6,1.5,0.7
	c0.4,0.1,0.7,0.2,0.9,0.2c0.3,0,0.6-0.1,1.2-0.2c0.5-0.1,1.1-0.3,1.6-0.6c0.6-0.3,1.1-0.5,1.5-0.7c0.4-0.2,0.8-0.2,1.2-0.2
	c1.4,0,2.6,0.4,3.7,1.1c0.6,0.4,1.2,0.9,1.8,1.7c-0.9,0.8-1.5,1.5-2,2c-0.8,1.1-1.1,2.3-1.1,3.5C23,17.2,23.4,18.5,24.2,19.6
	L24.2,19.6z M18.3,6C17.7,6.6,17,7,16.5,7.2c-0.2,0.1-0.5,0.1-0.8,0.2c-0.3,0-0.6,0.1-1,0.1c0-1.7,0.5-3.2,1.4-4.4
	C17,1.8,18.3,1,20.4,0.6c0,0.2,0.1,0.3,0.1,0.4v0.3c0,0.7-0.2,1.5-0.5,2.4C19.6,4.5,19,5.3,18.3,6L18.3,6z"/>
</svg>
