<?xml version="1.0" encoding="utf-8"?>
<!-- Generator: Adobe Illustrator 22.1.0, SVG Export Plug-In . SVG Version: 6.00 Build 0)  -->
<svg version="1.1" id="图层_1" xmlns="http://www.w3.org/2000/svg" xmlns:xlink="http://www.w3.org/1999/xlink" x="0px" y="0px"
	 viewBox="0 0 80 80" style="enable-background:new 0 0 80 80;" xml:space="preserve">
<style type="text/css">
	.st0{clip-path:url(#SVGID_2_);}
	.st1{clip-path:url(#SVGID_4_);fill:#545875;}
	.st2{clip-path:url(#SVGID_6_);}
	.st3{clip-path:url(#SVGID_8_);enable-background:new    ;}
	.st4{clip-path:url(#SVGID_10_);}
	.st5{clip-path:url(#SVGID_12_);}
	.st6{clip-path:url(#SVGID_14_);fill:#4DD0CB;}
	.st7{clip-path:url(#SVGID_16_);}
	.st8{clip-path:url(#SVGID_18_);fill:#FFFFFF;}
	.st9{fill:#545875;}
	.st10{fill:#DE6A3D;}
	.st11{fill:#4DD0CB;}
	.st12{fill:#FFFFFF;}
	.st13{fill:#5C70CB;}
</style>
<g>
	<defs>
		<path id="SVGID_1_" d="M-345.4-1940.7h-37c-0.9,0-1.6-0.7-1.6-1.6v-42.1c0-0.9,0.7-1.6,1.6-1.6h37c0.9,0,1.6,0.7,1.6,1.6v42.1
			C-343.8-1941.4-344.5-1940.7-345.4-1940.7"/>
	</defs>
	<clipPath id="SVGID_2_">
		<use xlink:href="#SVGID_1_"  style="overflow:visible;"/>
	</clipPath>
	<g class="st0">
		<defs>
			<rect id="SVGID_3_" x="-933" y="-2729" width="1920" height="5536"/>
		</defs>
		<clipPath id="SVGID_4_">
			<use xlink:href="#SVGID_3_"  style="overflow:visible;"/>
		</clipPath>
		<rect x="-389" y="-1991" class="st1" width="50.2" height="55.3"/>
	</g>
</g>
<g>
	<defs>
		<rect id="SVGID_5_" x="-377.4" y="-1985.6" width="34.2" height="49.6"/>
	</defs>
	<clipPath id="SVGID_6_">
		<use xlink:href="#SVGID_5_"  style="overflow:visible;"/>
	</clipPath>
	<g class="st2">
		<defs>
			<rect id="SVGID_7_" x="-933" y="-2729" width="1920" height="5536"/>
		</defs>
		<clipPath id="SVGID_8_">
			<use xlink:href="#SVGID_7_"  style="overflow:visible;"/>
		</clipPath>
		<g class="st3">
			<g>
				<defs>
					<rect id="SVGID_9_" x="-378" y="-1986" width="35" height="51"/>
				</defs>
				<clipPath id="SVGID_10_">
					<use xlink:href="#SVGID_9_"  style="overflow:visible;"/>
				</clipPath>
				<g class="st4">
					<defs>
						<path id="SVGID_11_" d="M-375.4-1936c-1.1,0.1-2-0.5-2-1.4v-43c0-0.9,0.9-1.7,2-1.8l30.2-3.3c1.1-0.1,2,0.5,2,1.4v43
							c0,0.9-0.9,1.7-2,1.8L-375.4-1936z"/>
					</defs>
					<clipPath id="SVGID_12_">
						<use xlink:href="#SVGID_11_"  style="overflow:visible;"/>
					</clipPath>
					<g class="st5">
						<defs>
							<rect id="SVGID_13_" x="-378" y="-1986" width="35" height="50"/>
						</defs>
						<clipPath id="SVGID_14_">
							<use xlink:href="#SVGID_13_"  style="overflow:visible;"/>
						</clipPath>
						<rect x="-382.4" y="-1990.6" class="st6" width="44.2" height="59.6"/>
					</g>
				</g>
			</g>
		</g>
	</g>
</g>
<g>
	<defs>
		<path id="SVGID_15_" d="M-370.7-1958.9c-1.5,0-2.7-1.2-2.7-2.6c0-1.5,1.2-2.6,2.7-2.6c1.5,0,2.7,1.2,2.7,2.6
			C-368.1-1960.1-369.2-1958.9-370.7-1958.9z"/>
	</defs>
	<clipPath id="SVGID_16_">
		<use xlink:href="#SVGID_15_"  style="overflow:visible;"/>
	</clipPath>
	<g class="st7">
		<defs>
			<rect id="SVGID_17_" x="-933" y="-2729" width="1920" height="5536"/>
		</defs>
		<clipPath id="SVGID_18_">
			<use xlink:href="#SVGID_17_"  style="overflow:visible;"/>
		</clipPath>
		<rect x="-378.4" y="-1969.2" class="st8" width="15.3" height="15.3"/>
	</g>
</g>
<g>
	<rect x="21.6" y="22" class="st9" width="10.1" height="4.3"/>
</g>
<g>
	<polygon class="st10" points="60.5,29.9 37.4,29.9 39.1,19.8 58.8,19.8 	"/>
</g>
<g>
	<path d="M200.5,111.2h-4.2c-0.3,0-0.6-0.3-0.6-0.6c0-0.3,0.3-0.6,0.6-0.6h4.2c0.3,0,0.6,0.3,0.6,0.6
		C201.2,110.9,200.9,111.2,200.5,111.2L200.5,111.2z M200.5,111.2"/>
</g>
<g>
	<path class="st9" d="M198.5,86.5c-0.4,0-0.9,0-1.4,0.1c-0.4,0.1-0.8,0.4-0.8,0.9V91c0,0.5-0.4,0.9-0.9,0.9c-0.5,0-0.9-0.4-0.9-0.9
		v-2.4c0-0.5-0.4-0.9-0.9-0.9c-0.1,0-0.3,0-0.4,0.1c-3.6,1.8-6.2,5.5-6.5,9.7c0,0.5-0.4,0.9-0.9,0.9h-1c-0.5,0-0.9,0.4-0.9,0.9
		c0,0.5,0.4,0.9,0.9,0.9h27.6c0.5,0,0.9-0.4,0.9-0.9c0-0.5-0.4-0.9-0.9-0.9h-1c-0.5,0-0.9-0.4-0.9-0.9c-0.3-4.2-2.8-7.9-6.4-9.7
		c-0.1-0.1-0.3-0.1-0.4-0.1c-0.5,0-0.9,0.4-0.9,0.9V91c0,0.5-0.4,0.9-0.9,0.9c-0.5,0-0.9-0.4-0.9-0.9v-3.5c0-0.5-0.3-0.9-0.8-0.9
		C199.5,86.6,199,86.5,198.5,86.5L198.5,86.5z M198.5,86.5"/>
</g>
<g>
	<path class="st10" d="M223.4,131.1c-1.6-8.5-9.5-15.3-19.7-17.1c3.9-2.2,6.6-6.8,6.6-12.1h-23.8c0,5.3,2.7,9.9,6.6,12.1
		c-10.1,1.8-18,8.6-19.7,17.1c-0.3,1.7,1.1,3.3,3,3.3h43.8C222.3,134.5,223.8,132.9,223.4,131.1L223.4,131.1z M175.6,132.1
		 M221.4,132.1"/>
</g>
<g>
	<ellipse cx="262.6" cy="39.7" rx="10.9" ry="11.1"/>
</g>
<g>
	<circle cx="262.6" cy="39.7" r="8"/>
</g>
<g>
	<path class="st9" d="M247,59.6c2.1,1.7,4.4,3.1,6.7,4c2.5-2.3,5.7-3.6,9-3.6c3.4,0,6.5,1.3,9,3.6c2.5-1,4.8-2.3,6.7-4
		c-0.8-3.2-0.2-6.7,1.3-9.7c1.7-2.9,4.4-5.2,7.6-6.1c0.2-1.3,0.4-2.7,0.4-4c0-1.3-0.2-2.7-0.4-4c-3.2-1-5.9-3.2-7.6-6.1
		s-2.1-6.5-1.3-9.7c-2.1-1.7-4.4-3.1-6.7-4c-2.5,2.3-5.5,3.6-9,3.6c-3.2,0-6.5-1.3-9-3.6c-2.5,1-4.8,2.3-6.7,4
		c0.8,3.2,0.2,6.7-1.3,9.7c-1.7,2.9-4.4,5.2-7.6,6.1c-0.2,1.3-0.4,2.7-0.4,4c0,1.3,0.2,2.7,0.4,4c3.2,1,5.9,3.2,7.6,6.1
		C247.2,52.9,247.7,56.3,247,59.6"/>
</g>
<g>
	<path class="st10" d="M62.4,60.2h-46c-1.1,0-2-0.9-2-2V26.9c0-1.1,0.9-2,2-2h46c1.1,0,2,0.9,2,2v31.3
		C64.4,59.3,63.5,60.2,62.4,60.2z"/>
</g>
<g>
	<path class="st9" d="M191.4,60.9h-36.6c-1.1,0-2-0.9-2-2V17.3c0-1.1,0.9-2,2-2h36.6c1.1,0,2,0.9,2,2v41.6
		C193.4,60,192.5,60.9,191.4,60.9z"/>
</g>
<g>
	<path class="st11" d="M191.8,62l-30.5,3.3c-1.1,0.1-2-0.5-2-1.4V20.5c0-0.9,0.9-1.7,2-1.9l30.5-3.3c1.1-0.1,2,0.5,2,1.4v43.4
		C193.9,61.1,193,61.9,191.8,62z"/>
</g>
<circle class="st12" cx="47.5" cy="41.8" r="14.4"/>
<circle class="st10" cx="47.5" cy="41.8" r="11.1"/>
<circle class="st12" cx="262.6" cy="39.7" r="7.2"/>
<g>
	<circle class="st12" cx="166.2" cy="40" r="2.8"/>
</g>
<g>
	<path class="st13" d="M348.6,15.2l-20-4.2h-0.8l-20,4.2c-0.7,0.1-1.1,0.7-1.1,1.4v18.1c0,13.7,10.6,23.6,21.2,26.4h0.5
		c10.5-2.8,21.2-12.6,21.2-26.4V16.6C349.7,15.9,349.3,15.4,348.6,15.2L348.6,15.2z M347,34.7"/>
</g>
<g>
	<path class="st12" d="M341.3,44.5c0.5,0.3,0.5,1.2-0.1,1.7l-2.8,2.8c-0.5,0.5-1.2,0.5-1.7,0l-11.1-11.1c-2.8,1.1-6.1,0.5-8.4-1.8
		c-2.5-2.5-3.1-6.1-1.6-9.1l5.4,5.3l3.7-3.7l-5.3-5.3c2.9-1.3,6.6-0.9,9.1,1.6c2.4,2.4,2.9,5.6,1.8,8.4L341.3,44.5z"/>
</g>
</svg>
