<?xml version="1.0" encoding="utf-8"?>
<!-- Generator: Adobe Illustrator 22.1.0, SVG Export Plug-In . SVG Version: 6.00 Build 0)  -->
<svg version="1.1" id="图层_1" xmlns="http://www.w3.org/2000/svg" xmlns:xlink="http://www.w3.org/1999/xlink" x="0px" y="0px"
	 viewBox="0 0 30 30" style="enable-background:new 0 0 30 30;" xml:space="preserve">
<style type="text/css">
	.st0{clip-path:url(#SVGID_2_);enable-background:new    ;}
	.st1{clip-path:url(#SVGID_4_);}
	.st2{clip-path:url(#SVGID_6_);}
	.st3{clip-path:url(#SVGID_8_);fill:#333333;}
	.st4{clip-path:url(#SVGID_10_);enable-background:new    ;}
	.st5{clip-path:url(#SVGID_12_);}
	.st6{clip-path:url(#SVGID_14_);}
	.st7{clip-path:url(#SVGID_16_);fill:#333333;}
</style>
<g>
	<defs>
		<path id="SVGID_1_" d="M-134-85h298c3.3,0,6,2.7,6,6v188c0,3.3-2.7,6-6,6h-298c-3.3,0-6-2.7-6-6V-79C-140-82.3-137.3-85-134-85z"
			/>
	</defs>
	<clipPath id="SVGID_2_">
		<use xlink:href="#SVGID_1_"  style="overflow:visible;"/>
	</clipPath>
	<g class="st0">
		<g>
			<defs>
				<rect id="SVGID_3_" x="-109" y="-63" width="26" height="29"/>
			</defs>
			<clipPath id="SVGID_4_">
				<use xlink:href="#SVGID_3_"  style="overflow:visible;"/>
			</clipPath>
			<g class="st1">
				<defs>
					<path id="SVGID_5_" d="M-87-48.1c0,4.2,3.9,5.6,4,5.7c0,0.1-0.6,2-2,4c-1.2,1.7-2.5,3.4-4.5,3.4c-2,0-2.6-1.1-4.9-1.1
						c-2.3,0-3,1.1-4.8,1.1c-1.9,0.1-3.4-1.8-4.7-3.5c-2.5-3.5-4.5-9.8-1.9-14.1c1.3-2.1,3.6-3.5,6.1-3.5c1.9,0,3.7,1.2,4.9,1.2
						c1.2,0,3.3-1.5,5.6-1.3c1,0,3.7,0.4,5.4,2.8C-83.9-53.4-87-51.7-87-48.1 M-95-56.5c-0.2-1.6,0.6-3.3,1.6-4.3
						c1.1-1.2,2.9-2.1,4.3-2.1c0.2,1.6-0.5,3.3-1.5,4.5C-91.7-57.3-93.4-56.4-95-56.5"/>
				</defs>
				<clipPath id="SVGID_6_">
					<use xlink:href="#SVGID_5_"  style="overflow:visible;"/>
				</clipPath>
				<g class="st2">
					<defs>
						<rect id="SVGID_7_" x="-107" y="-63" width="24" height="28"/>
					</defs>
					<clipPath id="SVGID_8_">
						<use xlink:href="#SVGID_7_"  style="overflow:visible;"/>
					</clipPath>
					<rect x="-112" y="-68" class="st3" width="34" height="38"/>
				</g>
			</g>
		</g>
	</g>
</g>
<g>
	<defs>
		<path id="SVGID_9_" d="M-127-82h298c3.3,0,6,2.7,6,6v188c0,3.3-2.7,6-6,6h-298c-3.3,0-6-2.7-6-6V-76C-133-79.3-130.3-82-127-82z"
			/>
	</defs>
	<clipPath id="SVGID_10_">
		<use xlink:href="#SVGID_9_"  style="overflow:visible;"/>
	</clipPath>
	<g class="st4">
		<g>
			<defs>
				<rect id="SVGID_11_" x="-102" y="-60" width="26" height="29"/>
			</defs>
			<clipPath id="SVGID_12_">
				<use xlink:href="#SVGID_11_"  style="overflow:visible;"/>
			</clipPath>
			<g class="st5">
				<defs>
					<path id="SVGID_13_" d="M-80-45.1c0,4.2,3.9,5.6,4,5.7c0,0.1-0.6,2-2,4c-1.2,1.7-2.5,3.4-4.5,3.4c-2,0-2.6-1.1-4.9-1.1
						c-2.3,0-3,1.1-4.8,1.1c-1.9,0.1-3.4-1.8-4.7-3.5c-2.5-3.5-4.5-9.8-1.9-14.1c1.3-2.1,3.6-3.5,6.1-3.5c1.9,0,3.7,1.2,4.9,1.2
						c1.2,0,3.3-1.5,5.6-1.3c1,0,3.7,0.4,5.4,2.8C-76.9-50.4-80-48.7-80-45.1 M-88-53.5c-0.2-1.6,0.6-3.3,1.6-4.3
						c1.1-1.2,2.9-2.1,4.3-2.1c0.2,1.6-0.5,3.3-1.5,4.5C-84.7-54.3-86.4-53.4-88-53.5"/>
				</defs>
				<clipPath id="SVGID_14_">
					<use xlink:href="#SVGID_13_"  style="overflow:visible;"/>
				</clipPath>
				<g class="st6">
					<defs>
						<rect id="SVGID_15_" x="-100" y="-60" width="24" height="28"/>
					</defs>
					<clipPath id="SVGID_16_">
						<use xlink:href="#SVGID_15_"  style="overflow:visible;"/>
					</clipPath>
					<rect x="-105" y="-65" class="st7" width="34" height="38"/>
				</g>
			</g>
		</g>
	</g>
</g>
<path d="M21.6,13.1c-0.3,0-0.5,0-0.7-0.1c-0.5-0.1-0.8-0.6-0.6-1V12c0.1-0.4,0.5-0.6,0.9-0.5c1.1,0.2,2.2-0.2,3-1
	c1.5-1.5,1.3-4.1-0.5-5.4c-1.2-0.8-2.8-0.8-3.9,0.1c-1.1,0.8-1.6,2.1-1.5,3.3c0.1,0.4-0.2,0.7-0.5,0.9c-0.5,0.2-0.9-0.2-1-0.6
	c-0.3-1.9,0.5-3.7,2.1-4.9c1.7-1.2,4-1.2,5.7-0.1c2.7,1.9,2.9,5.6,0.7,7.7C24.2,12.5,22.9,13.1,21.6,13.1z M21.5,26.9
	c-1.3,0-2.6-0.5-3.6-1.5c-1.1-1.1-1.6-2.7-1.4-4.3c0.1-0.5,0.6-0.8,1-0.6c0.4,0.1,0.6,0.5,0.5,0.9c-0.2,1.2,0.4,2.5,1.5,3.3
	c1.1,0.8,2.8,0.8,3.9,0.1c1.9-1.3,2-3.8,0.5-5.4c-0.8-0.8-1.9-1.1-3-1c-0.4,0.1-0.7-0.2-0.9-0.5v-0.1c-0.2-0.5,0.2-0.9,0.6-1
	c1.6-0.2,3.2,0.3,4.3,1.5c2,2,2,5.2,0,7.2C24.1,26.4,22.8,26.9,21.5,26.9L21.5,26.9z M7.7,13.1c-1.3,0-2.6-0.5-3.6-1.5
	C2,9.4,2.2,5.7,4.9,3.8c1.7-1.2,4-1.2,5.7,0c1.6,1.1,2.4,3,2.1,4.9c-0.1,0.5-0.6,0.8-1,0.6c-0.4-0.1-0.6-0.5-0.5-0.9
	c0.2-1.2-0.4-2.5-1.5-3.3C8.6,4.3,7,4.2,5.8,5.1c-1.9,1.3-2.1,3.8-0.5,5.4c0.8,0.8,1.9,1.1,3,1c0.4-0.1,0.7,0.2,0.9,0.5V12
	c0.2,0.5-0.2,0.9-0.6,1C8.2,13.1,7.9,13.1,7.7,13.1z M7.7,26.9c-1.3,0-2.6-0.5-3.6-1.5c-2-2-2-5.2,0-7.2c1.1-1.1,2.7-1.6,4.3-1.4
	c0.5,0.1,0.8,0.6,0.6,1v0.1c-0.1,0.4-0.5,0.6-0.9,0.5c-1.1-0.2-2.2,0.2-3,1c-1.5,1.5-1.3,4.1,0.5,5.4c1.2,0.8,2.8,0.8,3.9-0.1
	c1.1-0.8,1.6-2.1,1.5-3.3c-0.1-0.4,0.2-0.7,0.5-0.9c0.5-0.2,0.9,0.2,1,0.6c0.2,1.6-0.3,3.1-1.4,4.3C10.3,26.4,9,26.9,7.7,26.9
	L7.7,26.9z"/>
<path d="M20.6,22.1c0.1,0.1,0.3,0.3,0.3,0.3l0.1,0.1c0.4,0.4,1,0.4,1.3,0.1c0.3-0.3,0.3-0.9,0-1.3L22,20.9l-0.1-0.1
	c-1-0.9-4.1-3.9-4-5.7v-0.5c0-1.8,3.1-4.8,4-5.7L22,9c0.1-0.1,0.3-0.2,0.3-0.3c0.3-0.4,0.3-1,0-1.3c-0.3-0.4-0.9-0.4-1.3,0l-0.1,0.1
	c-0.1,0.1-0.2,0.2-0.3,0.3c-0.9,1-3.7,3.8-5.5,3.9h-0.7c-1.8-0.1-4.7-3.1-5.6-4L8.7,7.6C8.6,7.6,8.5,7.3,8.4,7.3C8,7,7.4,7,7.1,7.3
	C6.8,7.7,6.8,8.3,7.2,8.7l0.1,0.1C7.3,8.8,7.4,9,7.5,9c1,0.9,3.7,3.6,3.9,5.3c0.1,0.2,0.1,1,0,1.2c-0.4,1.8-3,4.3-3.9,5.2
	C7.5,20.8,7.3,21,7.2,21l-0.1,0.1c-0.4,0.4-0.4,1-0.1,1.3c0.3,0.3,0.9,0.3,1.3,0l0.3-0.3l0.1-0.1c0.8-0.9,3.7-3.8,5.5-4h0.9
	C16.9,18.3,19.6,21.1,20.6,22.1L20.6,22.1z"/>
</svg>
